<!-- traced from the project's own icon png by scripts/trace-png.py (mode=alpha). trademark of its owner. -->
<svg xmlns="http://www.w3.org/2000/svg" viewBox="49.8 65.8 924.3 892.3"><path fill="#000" fill-rule="evenodd" d="M0.0,512.0L0.0,0.0L512.0,0.0L1024.0,0.0L1024.0,512.0L1024.0,1024.0L512.0,1024.0L0.0,1024.0L0.0,512.0ZM532.0,931.0C560.1,929.5 580.6,926.5 607.5,920.0C673.2,904.1 733.0,869.7 756.9,834.2C793.2,780.1 851.6,629.4 922.9,405.5C931.5,378.3 932.3,374.8 944.6,301.5C948.0,281.5 948.6,266.7 946.6,255.3C943.7,238.7 937.6,228.4 920.6,211.5C889.9,180.9 842.7,154.5 786.0,136.2C764.1,129.2 686.4,107.5 668.5,103.4C653.5,100.0 629.1,96.1 608.5,93.9C593.5,92.2 543.3,92.2 530.5,93.9C499.2,97.9 477.8,104.4 461.9,114.5C458.3,116.9 425.7,143.9 389.4,174.6C353.2,205.3 280.8,266.6 228.5,310.8C176.2,355.0 128.9,395.5 123.2,400.7C106.5,416.1 92.1,436.4 84.4,455.5C74.4,479.8 74.2,484.9 81.0,541.0C83.8,564.4 87.4,594.8 89.0,608.6C90.9,624.7 92.9,636.9 94.5,642.6C107.4,687.0 140.2,734.2 196.0,788.3C219.6,811.2 254.1,836.3 301.0,864.7C310.1,870.2 321.8,877.3 327.0,880.5C371.4,907.7 426.6,925.6 479.7,930.0C506.5,932.2 509.0,932.2 532.0,931.0Z"/></svg>
